<?xml version="1.0" standalone="no"?><!DOCTYPE svg PUBLIC "-//W3C//DTD SVG 1.1//EN" "http://www.w3.org/Graphics/SVG/1.1/DTD/svg11.dtd"><svg width="16" height="16" viewBox="0 0 16 16" version="1.1" xmlns="http://www.w3.org/2000/svg" xmlns:xlink="http://www.w3.org/1999/xlink"><defs><style type="text/css"><![CDATA[
@font-face { font-family: ifont; src: url("http://at.alicdn.com/t/font_1442373896_4754455.eot?#iefix") format("embedded-opentype"), url("http://at.alicdn.com/t/font_1442373896_4754455.woff") format("woff"), url("http://at.alicdn.com/t/font_1442373896_4754455.ttf") format("truetype"), url("http://at.alicdn.com/t/font_1442373896_4754455.svg#ifont") format("svg"); }

]]></style></defs><g class="transform-group"><g transform="scale(0.015625, 0.015625)"><path d="M877.248 786.752l-530.752-530.752 229.504 0c35.36 0 64-28.64 64-64s-28.64-64-64-64l-384 0c-25.888 0-49.216 15.584-59.136 39.52-3.296 7.936-4.832 16.256-4.832 24.48l-0.032 0 0 384c0 35.36 28.64 64 64 64s64-28.64 64-64l0-229.504 530.752 530.752c12.48 12.512 28.864 18.752 45.248 18.752s32.768-6.24 45.248-18.752c24.992-24.992 24.992-65.504 0-90.496z" fill="#56abe4"></path></g></g></svg>